<svg width="155" height="156" viewBox="0 0 155 156" fill="none" xmlns="http://www.w3.org/2000/svg">
<path d="M152.886 143.17L143.023 143.17C142.828 143.17 142.67 143.328 142.67 143.523L142.67 153.386C142.67 153.581 142.828 153.739 143.023 153.739L152.886 153.739C153.081 153.739 153.239 153.581 153.239 153.386L153.239 143.523C153.239 143.328 153.081 143.17 152.886 143.17Z" stroke="white" stroke-width="1.32102" stroke-linecap="round" stroke-linejoin="round"/>
<path d="M152.886 114.989L143.023 114.989C142.828 114.989 142.67 115.146 142.67 115.341L142.67 125.204C142.67 125.399 142.828 125.557 143.023 125.557L152.886 125.557C153.081 125.557 153.239 125.399 153.239 125.204L153.239 115.341C153.239 115.146 153.081 114.989 152.886 114.989Z" stroke="white" stroke-width="1.32102" stroke-linecap="round" stroke-linejoin="round"/>
<path d="M152.886 86.8068L143.023 86.8068C142.828 86.8068 142.67 86.9645 142.67 87.1591L142.67 97.0227C142.67 97.2173 142.828 97.375 143.023 97.375L152.886 97.375C153.081 97.375 153.239 97.2173 153.239 97.0227L153.239 87.1591C153.239 86.9645 153.081 86.8068 152.886 86.8068Z" stroke="white" stroke-width="1.32102" stroke-linecap="round" stroke-linejoin="round"/>
<path d="M152.886 58.6251L143.023 58.6251C142.828 58.6251 142.67 58.7828 142.67 58.9773L142.67 68.841C142.67 69.0355 142.828 69.1932 143.023 69.1932L152.886 69.1932C153.081 69.1932 153.239 69.0355 153.239 68.841L153.239 58.9773C153.239 58.7828 153.081 58.6251 152.886 58.6251Z" stroke="white" stroke-width="1.32102" stroke-linecap="round" stroke-linejoin="round"/>
<path d="M152.886 30.4432L143.023 30.4432C142.828 30.4432 142.67 30.6009 142.67 30.7954L142.67 40.6591C142.67 40.8536 142.828 41.0114 143.023 41.0114L152.886 41.0114C153.081 41.0114 153.239 40.8536 153.239 40.6591L153.239 30.7954C153.239 30.6009 153.081 30.4432 152.886 30.4432Z" stroke="white" stroke-width="1.32102" stroke-linecap="round" stroke-linejoin="round"/>
<path d="M152.886 2.26141L143.023 2.26141C142.828 2.26141 142.67 2.41911 142.67 2.61368L142.67 12.4773C142.67 12.6719 142.828 12.8296 143.023 12.8296L152.886 12.8296C153.081 12.8296 153.239 12.6719 153.239 12.4773L153.239 2.61368C153.239 2.41911 153.081 2.26141 152.886 2.26141Z" stroke="white" stroke-width="1.32102" stroke-linecap="round" stroke-linejoin="round"/>
<path d="M124.705 143.17L114.841 143.17C114.646 143.17 114.489 143.328 114.489 143.523L114.489 153.386C114.489 153.581 114.646 153.739 114.841 153.739L124.705 153.739C124.899 153.739 125.057 153.581 125.057 153.386L125.057 143.523C125.057 143.328 124.899 143.17 124.705 143.17Z" stroke="white" stroke-width="1.32102" stroke-linecap="round" stroke-linejoin="round"/>
<path d="M124.705 114.989L114.841 114.989C114.646 114.989 114.489 115.146 114.489 115.341L114.489 125.204C114.489 125.399 114.646 125.557 114.841 125.557L124.705 125.557C124.899 125.557 125.057 125.399 125.057 125.204L125.057 115.341C125.057 115.146 124.899 114.989 124.705 114.989Z" stroke="white" stroke-width="1.32102" stroke-linecap="round" stroke-linejoin="round"/>
<path d="M124.705 86.8068L114.841 86.8068C114.646 86.8068 114.489 86.9645 114.489 87.1591L114.489 97.0227C114.489 97.2173 114.646 97.375 114.841 97.375L124.705 97.375C124.899 97.375 125.057 97.2173 125.057 97.0227L125.057 87.1591C125.057 86.9645 124.899 86.8068 124.705 86.8068Z" stroke="white" stroke-width="1.32102" stroke-linecap="round" stroke-linejoin="round"/>
<path d="M124.705 58.6251L114.841 58.6251C114.646 58.6251 114.489 58.7828 114.489 58.9773L114.489 68.841C114.489 69.0355 114.646 69.1932 114.841 69.1932L124.705 69.1932C124.899 69.1932 125.057 69.0355 125.057 68.841L125.057 58.9773C125.057 58.7828 124.899 58.6251 124.705 58.6251Z" stroke="white" stroke-width="1.32102" stroke-linecap="round" stroke-linejoin="round"/>
<path d="M124.705 30.4432L114.841 30.4432C114.646 30.4432 114.489 30.6009 114.489 30.7954L114.489 40.6591C114.489 40.8536 114.646 41.0114 114.841 41.0114L124.705 41.0114C124.899 41.0114 125.057 40.8536 125.057 40.6591L125.057 30.7954C125.057 30.6009 124.899 30.4432 124.705 30.4432Z" stroke="white" stroke-width="1.32102" stroke-linecap="round" stroke-linejoin="round"/>
<path d="M124.705 2.26141L114.841 2.26141C114.646 2.26141 114.489 2.41911 114.489 2.61368L114.489 12.4773C114.489 12.6719 114.646 12.8296 114.841 12.8296L124.705 12.8296C124.899 12.8296 125.057 12.6719 125.057 12.4773L125.057 2.61368C125.057 2.41911 124.899 2.26141 124.705 2.26141Z" stroke="white" stroke-width="1.32102" stroke-linecap="round" stroke-linejoin="round"/>
<path d="M96.5227 143.17L86.6591 143.17C86.4645 143.17 86.3068 143.328 86.3068 143.523L86.3068 153.386C86.3068 153.581 86.4645 153.739 86.6591 153.739L96.5227 153.739C96.7173 153.739 96.875 153.581 96.875 153.386L96.875 143.523C96.875 143.328 96.7173 143.17 96.5227 143.17Z" stroke="white" stroke-width="1.32102" stroke-linecap="round" stroke-linejoin="round"/>
<path d="M96.5227 114.989L86.6591 114.989C86.4645 114.989 86.3068 115.146 86.3068 115.341L86.3068 125.204C86.3068 125.399 86.4645 125.557 86.6591 125.557L96.5227 125.557C96.7173 125.557 96.875 125.399 96.875 125.204L96.875 115.341C96.875 115.146 96.7173 114.989 96.5227 114.989Z" stroke="white" stroke-width="1.32102" stroke-linecap="round" stroke-linejoin="round"/>
<path d="M96.5227 86.8068L86.6591 86.8068C86.4645 86.8068 86.3068 86.9645 86.3068 87.1591L86.3068 97.0227C86.3068 97.2173 86.4645 97.375 86.6591 97.375L96.5227 97.375C96.7173 97.375 96.875 97.2173 96.875 97.0227L96.875 87.1591C96.875 86.9645 96.7173 86.8068 96.5227 86.8068Z" stroke="white" stroke-width="1.32102" stroke-linecap="round" stroke-linejoin="round"/>
<path d="M96.5227 58.6251L86.6591 58.6251C86.4645 58.6251 86.3068 58.7828 86.3068 58.9773L86.3068 68.841C86.3068 69.0355 86.4645 69.1932 86.6591 69.1932L96.5227 69.1932C96.7173 69.1932 96.875 69.0355 96.875 68.841L96.875 58.9773C96.875 58.7828 96.7173 58.6251 96.5227 58.6251Z" stroke="white" stroke-width="1.32102" stroke-linecap="round" stroke-linejoin="round"/>
<path d="M96.5227 30.4432L86.6591 30.4432C86.4645 30.4432 86.3068 30.6009 86.3068 30.7954L86.3068 40.6591C86.3068 40.8536 86.4645 41.0114 86.6591 41.0114L96.5227 41.0114C96.7173 41.0114 96.875 40.8536 96.875 40.6591L96.875 30.7954C96.875 30.6009 96.7173 30.4432 96.5227 30.4432Z" stroke="white" stroke-width="1.32102" stroke-linecap="round" stroke-linejoin="round"/>
<path d="M96.5227 2.26141L86.6591 2.26141C86.4645 2.26141 86.3068 2.41911 86.3068 2.61368L86.3068 12.4773C86.3068 12.6719 86.4645 12.8296 86.6591 12.8296L96.5227 12.8296C96.7173 12.8296 96.875 12.6719 96.875 12.4773L96.875 2.61368C96.875 2.41911 96.7173 2.26141 96.5227 2.26141Z" stroke="white" stroke-width="1.32102" stroke-linecap="round" stroke-linejoin="round"/>
<path d="M68.3409 143.17L58.4773 143.17C58.2827 143.17 58.125 143.328 58.125 143.523L58.125 153.386C58.125 153.581 58.2827 153.739 58.4773 153.739L68.3409 153.739C68.5355 153.739 68.6932 153.581 68.6932 153.386L68.6932 143.523C68.6932 143.328 68.5355 143.17 68.3409 143.17Z" stroke="white" stroke-width="1.32102" stroke-linecap="round" stroke-linejoin="round"/>
<path d="M68.3409 114.989L58.4773 114.989C58.2827 114.989 58.125 115.146 58.125 115.341L58.125 125.204C58.125 125.399 58.2827 125.557 58.4773 125.557L68.3409 125.557C68.5355 125.557 68.6932 125.399 68.6932 125.204L68.6932 115.341C68.6932 115.146 68.5355 114.989 68.3409 114.989Z" stroke="white" stroke-width="1.32102" stroke-linecap="round" stroke-linejoin="round"/>
<path d="M68.3409 86.8068L58.4773 86.8068C58.2827 86.8068 58.125 86.9645 58.125 87.1591L58.125 97.0227C58.125 97.2173 58.2827 97.375 58.4773 97.375L68.3409 97.375C68.5355 97.375 68.6932 97.2173 68.6932 97.0227L68.6932 87.1591C68.6932 86.9645 68.5355 86.8068 68.3409 86.8068Z" stroke="white" stroke-width="1.32102" stroke-linecap="round" stroke-linejoin="round"/>
<path d="M68.3409 58.6251L58.4773 58.6251C58.2827 58.6251 58.125 58.7828 58.125 58.9773L58.125 68.841C58.125 69.0355 58.2827 69.1932 58.4773 69.1932L68.3409 69.1932C68.5355 69.1932 68.6932 69.0355 68.6932 68.841L68.6932 58.9773C68.6932 58.7828 68.5355 58.6251 68.3409 58.6251Z" stroke="white" stroke-width="1.32102" stroke-linecap="round" stroke-linejoin="round"/>
<path d="M68.3409 30.4432L58.4773 30.4432C58.2827 30.4432 58.125 30.6009 58.125 30.7954L58.125 40.6591C58.125 40.8536 58.2827 41.0114 58.4773 41.0114L68.3409 41.0114C68.5355 41.0114 68.6932 40.8536 68.6932 40.6591L68.6932 30.7954C68.6932 30.6009 68.5355 30.4432 68.3409 30.4432Z" stroke="white" stroke-width="1.32102" stroke-linecap="round" stroke-linejoin="round"/>
<path d="M68.3409 2.26141L58.4773 2.26141C58.2827 2.26141 58.125 2.41911 58.125 2.61368L58.125 12.4773C58.125 12.6719 58.2827 12.8296 58.4773 12.8296L68.3409 12.8296C68.5355 12.8296 68.6932 12.6719 68.6932 12.4773L68.6932 2.61368C68.6932 2.41911 68.5355 2.26141 68.3409 2.26141Z" stroke="white" stroke-width="1.32102" stroke-linecap="round" stroke-linejoin="round"/>
<path d="M40.1591 143.17L30.2954 143.17C30.1009 143.17 29.9432 143.328 29.9432 143.523L29.9432 153.386C29.9432 153.581 30.1009 153.739 30.2954 153.739L40.1591 153.739C40.3536 153.739 40.5114 153.581 40.5114 153.386L40.5114 143.523C40.5114 143.328 40.3536 143.17 40.1591 143.17Z" stroke="white" stroke-width="1.32102" stroke-linecap="round" stroke-linejoin="round"/>
<path d="M40.1591 114.989L30.2954 114.989C30.1009 114.989 29.9432 115.146 29.9432 115.341L29.9432 125.204C29.9432 125.399 30.1009 125.557 30.2954 125.557L40.1591 125.557C40.3536 125.557 40.5114 125.399 40.5114 125.204L40.5114 115.341C40.5114 115.146 40.3536 114.989 40.1591 114.989Z" stroke="white" stroke-width="1.32102" stroke-linecap="round" stroke-linejoin="round"/>
<path d="M40.1591 86.8068L30.2954 86.8068C30.1009 86.8068 29.9432 86.9645 29.9432 87.1591L29.9432 97.0227C29.9432 97.2173 30.1009 97.375 30.2954 97.375L40.1591 97.375C40.3536 97.375 40.5114 97.2173 40.5114 97.0227L40.5114 87.1591C40.5114 86.9645 40.3536 86.8068 40.1591 86.8068Z" stroke="white" stroke-width="1.32102" stroke-linecap="round" stroke-linejoin="round"/>
<path d="M40.1591 58.6251L30.2954 58.6251C30.1009 58.6251 29.9432 58.7828 29.9432 58.9773L29.9432 68.841C29.9432 69.0355 30.1009 69.1932 30.2954 69.1932L40.1591 69.1932C40.3536 69.1932 40.5114 69.0355 40.5114 68.841L40.5114 58.9773C40.5114 58.7828 40.3536 58.6251 40.1591 58.6251Z" stroke="white" stroke-width="1.32102" stroke-linecap="round" stroke-linejoin="round"/>
<path d="M40.1591 30.4432L30.2954 30.4432C30.1009 30.4432 29.9432 30.6009 29.9432 30.7954L29.9432 40.6591C29.9432 40.8536 30.1009 41.0114 30.2954 41.0114L40.1591 41.0114C40.3536 41.0114 40.5114 40.8536 40.5114 40.6591L40.5114 30.7954C40.5114 30.6009 40.3536 30.4432 40.1591 30.4432Z" stroke="white" stroke-width="1.32102" stroke-linecap="round" stroke-linejoin="round"/>
<path d="M40.1591 2.26141L30.2954 2.26141C30.1009 2.26141 29.9432 2.41911 29.9432 2.61368L29.9432 12.4773C29.9432 12.6719 30.1009 12.8296 30.2954 12.8296L40.1591 12.8296C40.3536 12.8296 40.5114 12.6719 40.5114 12.4773L40.5114 2.61368C40.5114 2.41911 40.3536 2.26141 40.1591 2.26141Z" stroke="white" stroke-width="1.32102" stroke-linecap="round" stroke-linejoin="round"/>
<path d="M11.9773 143.17L2.11362 143.17C1.91905 143.17 1.76135 143.328 1.76135 143.523L1.76135 153.386C1.76135 153.581 1.91905 153.739 2.11362 153.739L11.9773 153.739C12.1718 153.739 12.3295 153.581 12.3295 153.386L12.3295 143.523C12.3295 143.328 12.1718 143.17 11.9773 143.17Z" stroke="white" stroke-width="1.32102" stroke-linecap="round" stroke-linejoin="round"/>
<path d="M11.9773 114.989L2.11362 114.989C1.91905 114.989 1.76135 115.146 1.76135 115.341L1.76135 125.204C1.76135 125.399 1.91905 125.557 2.11362 125.557L11.9773 125.557C12.1718 125.557 12.3295 125.399 12.3295 125.204L12.3295 115.341C12.3295 115.146 12.1718 114.989 11.9773 114.989Z" stroke="white" stroke-width="1.32102" stroke-linecap="round" stroke-linejoin="round"/>
<path d="M11.9773 86.8068L2.11362 86.8068C1.91905 86.8068 1.76135 86.9645 1.76135 87.1591L1.76135 97.0227C1.76135 97.2173 1.91905 97.375 2.11362 97.375L11.9773 97.375C12.1718 97.375 12.3295 97.2173 12.3295 97.0227L12.3295 87.1591C12.3295 86.9645 12.1718 86.8068 11.9773 86.8068Z" stroke="white" stroke-width="1.32102" stroke-linecap="round" stroke-linejoin="round"/>
<path d="M11.9773 58.6251L2.11362 58.6251C1.91905 58.6251 1.76135 58.7828 1.76135 58.9773L1.76135 68.841C1.76135 69.0355 1.91905 69.1932 2.11362 69.1932L11.9773 69.1932C12.1718 69.1932 12.3295 69.0355 12.3295 68.841L12.3295 58.9773C12.3295 58.7828 12.1718 58.6251 11.9773 58.6251Z" stroke="white" stroke-width="1.32102" stroke-linecap="round" stroke-linejoin="round"/>
<path d="M11.9773 30.4432L2.11362 30.4432C1.91905 30.4432 1.76135 30.6009 1.76135 30.7954L1.76135 40.6591C1.76135 40.8536 1.91905 41.0114 2.11362 41.0114L11.9773 41.0114C12.1718 41.0114 12.3295 40.8536 12.3295 40.6591L12.3295 30.7954C12.3295 30.6009 12.1718 30.4432 11.9773 30.4432Z" stroke="white" stroke-width="1.32102" stroke-linecap="round" stroke-linejoin="round"/>
<path d="M11.9773 2.26141L2.11362 2.26141C1.91905 2.26141 1.76135 2.41911 1.76135 2.61368L1.76135 12.4773C1.76135 12.6719 1.91905 12.8296 2.11362 12.8296L11.9773 12.8296C12.1718 12.8296 12.3295 12.6719 12.3295 12.4773L12.3295 2.61368C12.3295 2.41911 12.1718 2.26141 11.9773 2.26141Z" stroke="white" stroke-width="1.32102" stroke-linecap="round" stroke-linejoin="round"/>
</svg>
